<svg xmlns="http://www.w3.org/2000/svg" width="800" height="800" fill="none"><path stroke="#fff" stroke-linecap="round" stroke-width="50" d="M300 533.333c28.346 21.01 62.82 33.334 100 33.334s71.653-12.324 100-33.334"/><path stroke="#fff" stroke-linecap="round" stroke-width="50" d="M733.333 406.797V457.5c0 130.027 0 195.043-39.053 235.437-39.05 40.396-101.907 40.396-227.613 40.396H333.333c-125.708 0-188.561 0-227.614-40.396-39.052-40.394-39.052-105.41-39.052-235.437v-50.703c0-76.281 0-114.421 17.306-146.039 17.307-31.618 48.925-51.241 112.161-90.487l66.667-41.375C329.646 87.41 363.07 66.666 400 66.666c36.93 0 70.353 20.744 137.2 62.23l66.667 41.375c63.236 39.246 94.853 58.869 112.16 90.487"/></svg>